<?xml version="1.0" encoding="UTF-8"?>
<svg id="Layer_1" xmlns="http://www.w3.org/2000/svg" version="1.1" viewBox="0 0 500 500">
  <!-- Generator: Adobe Illustrator 30.3.0, SVG Export Plug-In . SVG Version: 2.1.3 Build 182)  -->
  <defs>
    <style>
      .st0 {
        fill: #234192;
      }
    </style>
  </defs>
  <path class="st0" d="M356.86,441.5h-13.95c-18.44-2.04-35.35-11.21-46.93-26.67l-191.84-.03c-11.74,0-20.96-9.37-20.96-21.05l-.03-274.49c0-12,8.71-21.76,20.93-21.77l51.64-.07.14-14.09c.03-3,2.97-5.31,5.75-5.32l28.73-.09c5.2-12.31,16.77-19.48,29.32-19.42,12.47.07,23.89,7.56,28.8,19.46l28.5.03c3.38,0,6.04,2.52,6.05,5.96l.04,13.48,51.51.03c12.3,0,21.1,9.64,21.1,21.8l-.03,188.42c34.9,3.15,61.25,32.51,61.2,66.99-.05,34.22-25.85,62.81-59.98,66.83ZM271.05,116.9v-26.95s-26.32.01-26.32.01c-3.16.19-5.61-1.8-6.45-4.77-2.38-9.02-10.31-14.87-19.32-14.69-8.62.18-16.3,6.04-18.44,14.89-.73,2.64-3.03,4.57-5.86,4.56h-26.89s0,26.95,0,26.95h103.28ZM334.29,109.42h-51.24s-.04,13.49-.04,13.49c0,3.42-2.57,5.96-6.15,5.96h-114.37c-3.74.01-6.65-2.19-6.67-6.06l-.08-13.4h-50.96c-5.18-.01-9.62,3.44-9.62,9.15v275.13c0,5.73,4.35,9.16,9.76,9.16h183.72c-9.26-20.91-8.29-43.95,4.15-63.99,10.43-16.8,29.26-29.35,50.88-31.15l-.03-189.92c0-5-4.62-8.36-9.35-8.36ZM340.6,320.18c-30.61,5.08-50.28,34.04-45.4,63.43,4.97,29.98,33.43,50.25,63.08,45.51s50.51-33.04,45.97-62.74c-4.6-30.11-32.8-51.32-63.65-46.19Z"/>
  <path class="st0" d="M172.93,209.37l-34.89.03c-3.71,0-6.4-2.7-6.4-6.38v-34.49c0-3.51,2.45-6.3,6.07-6.3h35.26c2.97,0,5.82,2.53,5.82,5.62l.04,35.16c0,3.14-2.22,6.36-5.9,6.36ZM166.87,197.32l-.09-23.13-23.15.03.02,23.24,23.22-.14Z"/>
  <path class="st0" d="M172.93,289.46l-34.89.03c-3.71,0-6.4-2.7-6.4-6.38v-34.49c0-3.51,2.45-6.3,6.07-6.3h35.26c2.97,0,5.82,2.53,5.82,5.62l.04,35.16c0,3.14-2.22,6.36-5.9,6.36ZM166.87,277.41l-.09-23.13-23.15.03.02,23.24,23.22-.14Z"/>
  <path class="st0" d="M172.93,369.55l-34.89.03c-3.72,0-6.4-2.7-6.4-6.38v-34.49c0-3.52,2.45-6.3,6.07-6.3h35.26c2.97,0,5.82,2.53,5.82,5.62l.04,35.17c0,3.13-2.22,6.36-5.9,6.36ZM166.87,357.5l-.09-23.13-23.15.03.02,23.24,23.22-.14Z"/>
  <path class="st0" d="M301.45,174.19h-89.86c-3.59.01-5.85-3.31-5.8-6.01.05-3.24,2.4-5.96,6.1-5.96h88.97c3.58,0,5.87,2.19,6.24,5.26.33,2.7-1.52,6.7-5.65,6.7Z"/>
  <path class="st0" d="M301.45,209.37h-89.86c-3.59.01-5.85-3.31-5.8-6.01.05-3.24,2.4-5.96,6.1-5.96h88.97c3.58,0,5.87,2.19,6.24,5.26.33,2.7-1.52,6.7-5.65,6.7Z"/>
  <path class="st0" d="M301.45,254.29h-89.86c-3.59.01-5.85-3.31-5.8-6.01.05-3.24,2.4-5.96,6.1-5.96h88.97c3.58,0,5.87,2.19,6.24,5.26.33,2.7-1.52,6.7-5.65,6.7Z"/>
  <path class="st0" d="M301.45,289.47h-89.86c-3.59.01-5.85-3.31-5.8-6.01.05-3.24,2.4-5.96,6.1-5.96h88.97c3.58,0,5.87,2.19,6.24,5.26.33,2.7-1.52,6.7-5.65,6.7Z"/>
  <path class="st0" d="M264.08,334.37l-52.52.02c-3.52,0-5.81-3.31-5.77-6.02.05-3.24,2.45-5.95,6.06-5.95h51.64c3.5,0,5.85,2.18,6.23,5.25.34,2.76-1.62,6.7-5.63,6.7Z"/>
  <path class="st0" d="M264.08,369.55l-52.52.02c-3.52,0-5.81-3.31-5.77-6.02.05-3.23,2.45-5.95,6.06-5.95h51.64c3.5,0,5.85,2.18,6.23,5.25.34,2.76-1.62,6.7-5.63,6.7Z"/>
  <path class="st0" d="M336.61,399.66l-22.65-22.57c-2.49-2.48-2.76-6.29-.27-8.81,2.36-2.38,6.1-2.38,8.78.31l18.13,18.16,36.61-37.03c2.5-2.52,6.5-2,8.46.12,2.69,2.92,1.92,6.38-.75,9.08l-40.14,40.57c-2.01,2.03-5.89,2.46-8.17.18Z"/>
</svg>