<svg width="500" height="500" viewBox="0 0 500 500" fill="none" xmlns="http://www.w3.org/2000/svg">
<g clip-path="url(#clip0_16_11)">
<mask id="mask0_16_11" style="mask-type:luminance" maskUnits="userSpaceOnUse" x="0" y="0" width="500" height="500">
<path d="M498.499 498.499V1.49951H1.5V498.499H498.499Z" fill="white" stroke="white" stroke-width="3"/>
</mask>
<g mask="url(#mask0_16_11)">
<path d="M181.586 323.996C178.439 354.983 152.269 379.164 120.451 379.164C86.5133 379.164 59 351.652 59 317.713C59 283.774 86.5133 256.261 120.451 256.261C132.797 256.261 144.293 259.902 153.923 266.168" stroke="#234192" stroke-width="13" stroke-miterlimit="10" stroke-linecap="round" stroke-linejoin="round"/>
<path d="M156.132 308.384C156.925 311.43 157.325 314.565 157.323 317.713C157.323 338.077 140.816 354.584 120.452 354.584C100.089 354.584 83.5806 338.077 83.5806 317.713C83.5806 297.35 100.089 280.842 120.452 280.842C126.213 280.834 131.895 282.181 137.039 284.775" stroke="#234192" stroke-width="13" stroke-miterlimit="10" stroke-linecap="round" stroke-linejoin="round"/>
<path d="M359.578 259.246C365.706 257.262 372.108 256.255 378.549 256.261C412.488 256.261 440 283.775 440 317.713C440 351.651 412.488 379.165 378.549 379.165C350.124 379.165 326.207 359.866 319.186 333.656" stroke="#234192" stroke-width="13" stroke-miterlimit="10" stroke-linecap="round" stroke-linejoin="round"/>
<path d="M395.656 285.043C407.405 291.208 415.42 303.525 415.42 317.713C415.42 338.077 398.912 354.584 378.549 354.584C358.186 354.584 341.678 338.077 341.678 317.713C341.678 302.441 350.964 289.338 364.197 283.74" stroke="#234192" stroke-width="13" stroke-miterlimit="10" stroke-linecap="round" stroke-linejoin="round"/>
<path d="M263.582 287.243L212.629 219.391L229.889 205.583C238.606 198.609 249.436 194.81 260.6 194.81H286.371C299.947 194.81 310.951 205.815 310.951 219.391V225.536H348.523C357.105 225.536 363.044 216.965 360.031 208.93L347.823 176.375H359.511C361.579 176.375 363.613 176.896 365.425 177.891C367.238 178.886 368.77 180.322 369.88 182.067L400.617 230.368C404.973 237.214 401.618 246.327 393.863 248.713L358.834 259.491C350.008 262.207 342.126 267.353 336.089 274.341C330.053 281.329 326.107 289.876 324.703 299.003L319.501 332.807C318.118 341.8 310.379 348.439 301.281 348.439H224.023C220.599 348.439 217.243 347.485 214.331 345.686C211.418 343.886 209.065 341.31 207.533 338.248L202.71 328.601C202.051 327.282 201.887 325.771 202.249 324.343C202.611 322.914 203.475 321.663 204.682 320.818L229.914 303.156" stroke="#234192" stroke-width="13" stroke-miterlimit="10" stroke-linecap="round" stroke-linejoin="round"/>
<path d="M232.466 242.092L249.236 230.114C253.404 227.136 258.4 225.535 263.523 225.535H310.952" stroke="#234192" stroke-width="13" stroke-miterlimit="10" stroke-linecap="round" stroke-linejoin="round"/>
<path d="M335.532 200.955H353.968" stroke="#234192" stroke-width="13" stroke-miterlimit="10" stroke-linecap="round" stroke-linejoin="round"/>
<path d="M212.629 219.391H184.618C181.854 219.391 179.124 218.769 176.633 217.571C174.141 216.374 171.95 214.631 170.223 212.472L158.558 197.89C156.255 195.012 153.334 192.688 150.011 191.091C146.689 189.494 143.05 188.665 139.364 188.665H102.016L232.857 288.78" stroke="#234192" stroke-width="13" stroke-miterlimit="10" stroke-linecap="round" stroke-linejoin="round"/>
<path d="M267.935 299.277C267.935 309.459 259.681 317.713 249.5 317.713C239.318 317.713 231.064 309.459 231.064 299.277C231.064 289.096 239.318 280.842 249.5 280.842C259.682 280.842 267.935 289.096 267.935 299.277Z" stroke="#234192" stroke-width="13" stroke-miterlimit="10" stroke-linecap="round" stroke-linejoin="round"/>
<path d="M132.742 317.714C132.742 324.501 127.239 330.004 120.452 330.004C113.664 330.004 108.162 324.501 108.162 317.714C108.162 310.926 113.664 305.423 120.452 305.423C127.239 305.423 132.742 310.926 132.742 317.714Z" stroke="#234192" stroke-width="13" stroke-miterlimit="10" stroke-linecap="round" stroke-linejoin="round"/>
<path d="M206.629 337.161L157.899 309.841C157.193 309.449 156.572 308.922 156.07 308.29C155.568 307.658 155.196 306.933 154.974 306.157C154.753 305.381 154.686 304.569 154.778 303.767C154.87 302.966 155.119 302.19 155.511 301.485L161.48 290.738C161.872 290.033 162.399 289.412 163.031 288.91C163.663 288.408 164.387 288.036 165.163 287.814C165.939 287.592 166.751 287.525 167.553 287.617C168.354 287.71 169.13 287.959 169.836 288.35L214.075 313.014" stroke="#234192" stroke-width="13" stroke-miterlimit="10" stroke-linecap="round" stroke-linejoin="round"/>
<path d="M193.938 299.021L213.141 277.257" stroke="#234192" stroke-width="13" stroke-miterlimit="10" stroke-linecap="round" stroke-linejoin="round"/>
<path d="M323.242 250.117H265.491C264.21 250.116 262.961 250.517 261.919 251.262L246.751 262.095" stroke="#234192" stroke-width="13" stroke-miterlimit="10" stroke-linecap="round" stroke-linejoin="round"/>
<path d="M390.839 317.714C390.839 324.501 385.336 330.004 378.549 330.004C371.761 330.004 366.259 324.501 366.259 317.714C366.259 310.926 371.761 305.423 378.549 305.423C385.336 305.423 390.839 310.926 390.839 317.714Z" stroke="#234192" stroke-width="13" stroke-miterlimit="10" stroke-linecap="round" stroke-linejoin="round"/>
<path d="M357.931 261.015L373.597 304.097" stroke="#234192" stroke-width="13" stroke-miterlimit="10" stroke-linecap="round" stroke-linejoin="round"/>
</g>
</g>
<defs>
<clipPath id="clip0_16_11">
<rect width="499.999" height="499.999" fill="white"/>
</clipPath>
</defs>
</svg>
