<svg width="50" height="50" viewBox="0 0 50 50" fill="none" xmlns="http://www.w3.org/2000/svg">
<rect width="50" height="50" rx="25" fill="#264291"/>
<path d="M15.5 26.2998H15.4004C14.6825 26.2998 14.1006 25.7179 14.1006 25V22.5996C14.1008 21.8819 14.6827 21.2998 15.4004 21.2998H16.875C17.0323 20.7896 17.2378 20.2956 17.4902 19.8252L16.4424 18.7773C16.1989 18.5342 16.0626 18.2043 16.0625 17.8604C16.0625 17.5162 16.1987 17.1855 16.4424 16.9424L18.1426 15.2422L18.1445 15.2412C18.6248 14.7816 19.3643 14.753 19.877 15.1553L19.9766 15.2412L19.9785 15.2422L21.0264 16.29C21.4967 16.038 21.99 15.8318 22.5 15.6748V14.2002C22.5 13.4825 23.0821 12.9006 23.7998 12.9004H26.2002C26.9181 12.9004 27.5 13.4823 27.5 14.2002V15.6748C28.01 15.8319 28.5034 16.0379 28.9736 16.29L30.0225 15.2422L30.0244 15.2412C30.5048 14.7816 31.244 14.7531 31.7568 15.1553L31.8564 15.2412L31.8584 15.2422L33.5576 16.9424C33.6782 17.0628 33.7736 17.2059 33.8389 17.3633C33.9041 17.5206 33.9385 17.6891 33.9385 17.8594C33.9385 18.0298 33.9051 18.199 33.8398 18.3564C33.7746 18.5139 33.6783 18.6569 33.5576 18.7773L32.5088 19.8252C32.7611 20.2959 32.9676 20.7894 33.125 21.2998H34.6006C35.3181 21.3 35.9002 21.8821 35.9004 22.5996V25C35.9004 25.7177 35.3183 26.2996 34.6006 26.2998H34.5V25.2998H34.6006C34.766 25.2996 34.9004 25.1655 34.9004 25V22.5996C34.9002 22.4342 34.7659 22.3 34.6006 22.2998H32.3623L32.3438 22.2246L32.2656 21.9248C32.0912 21.2468 31.8204 20.5968 31.4609 19.9961L31.3008 19.7285L31.2607 19.6621L31.3154 19.6064L32.8496 18.0703C32.9647 17.9548 32.9646 17.7679 32.8496 17.6523L31.1523 15.9521C31.0955 15.898 31.0199 15.8682 30.9414 15.8682C30.8636 15.8682 30.7881 15.8969 30.7314 15.9502L29.1953 17.4873L29.1406 17.542L29.0732 17.502L28.8057 17.3418C28.2044 16.9824 27.5544 16.7116 26.876 16.5371H26.875L26.5752 16.459L26.5 16.4395V14.2002C26.5 14.0345 26.3659 13.9004 26.2002 13.9004H23.7998C23.6343 13.9006 23.5 14.0346 23.5 14.2002V16.4375L23.4248 16.457L23.125 16.5342C22.447 16.7086 21.7972 16.9797 21.1963 17.3389L20.9287 17.499L20.8623 17.5391L20.8066 17.4844L19.2705 15.9512V15.9502C19.2138 15.8967 19.1386 15.8672 19.0605 15.8672C18.9816 15.8672 18.9056 15.8975 18.8486 15.9521L17.1514 17.6494H17.1504C17.1228 17.677 17.1009 17.71 17.0859 17.7461C17.071 17.7822 17.0635 17.8213 17.0635 17.8604C17.0635 17.8992 17.0711 17.9377 17.0859 17.9736C17.1009 18.0096 17.1228 18.0428 17.1504 18.0703H17.1514L18.6875 19.6064L18.7422 19.6621L18.7021 19.7285L18.542 19.9961C18.2274 20.5218 17.9812 21.0851 17.8076 21.6719L17.7373 21.9248L17.6592 22.2256L17.6396 22.2998H15.4004C15.2348 22.2998 15.1008 22.4341 15.1006 22.5996V25C15.1006 25.1657 15.2347 25.2998 15.4004 25.2998H15.5V26.2998Z" fill="#DFB001" stroke="#DFB001" stroke-width="0.2"/>
<path d="M24.9995 18.1003C28.1472 18.1003 30.6995 20.6517 30.6997 23.7996V23.9001H29.6997V23.7996C29.6995 21.204 27.5951 19.1003 24.9995 19.1003C22.4041 19.1006 20.3005 21.2042 20.3003 23.7996V23.9001H19.3003V23.7996C19.3005 20.6518 21.8518 18.1006 24.9995 18.1003Z" fill="#DFB001" stroke="#DFB001" stroke-width="0.2"/>
<path d="M18.2002 23.7C19.5808 23.7002 20.7002 24.8194 20.7002 26.2L20.6865 26.4558C20.5573 27.7157 19.4939 28.6984 18.2002 28.7C16.8195 28.7 15.7002 27.5805 15.7002 26.2C15.7002 24.8192 16.8195 23.7 18.2002 23.7ZM31.7998 23.7C33.1805 23.7 34.2998 24.8192 34.2998 26.2L34.2871 26.4558C34.1665 27.6317 33.2316 28.5667 32.0557 28.6873L31.7998 28.7C30.4191 28.7 29.2998 27.5805 29.2998 26.2C29.2998 24.8192 30.4191 23.7 31.7998 23.7ZM18.2002 24.7C17.3718 24.7 16.7002 25.3716 16.7002 26.2C16.7002 27.0283 17.3718 27.7 18.2002 27.7C19.0284 27.6997 19.7002 27.0282 19.7002 26.2C19.7002 25.3717 19.0284 24.7002 18.2002 24.7ZM31.7998 24.7C30.9714 24.7 30.2998 25.3716 30.2998 26.2C30.2998 27.0283 30.9714 27.7 31.7998 27.7C32.6282 27.7 33.2998 27.0283 33.2998 26.2C33.2998 25.3716 32.6282 24.7 31.7998 24.7ZM25 22.1003C26.3807 22.1004 27.5 23.2197 27.5 24.6003C27.4984 25.9803 26.38 27.0988 25 27.1003C23.6194 27.1003 22.5002 25.9807 22.5 24.6003C22.5 23.2196 23.6193 22.1003 25 22.1003ZM25 23.1003C24.1716 23.1003 23.5 23.772 23.5 24.6003C23.5002 25.4285 24.1718 26.1003 25 26.1003C25.8282 26.1002 26.4998 25.4285 26.5 24.6003C26.5 23.772 25.8283 23.1004 25 23.1003Z" fill="#DFB001" stroke="#DFB001" stroke-width="0.2"/>
<path d="M26.5996 27.3003C27.2721 27.2992 27.9326 27.4823 28.5078 27.8306H28.5068C28.5727 27.8672 28.636 27.9083 28.6963 27.9536C29.0799 28.2194 29.4089 28.5565 29.667 28.9448C29.8431 28.9174 30.0209 28.9015 30.1992 28.8999H33.4004C34.1436 28.898 34.8698 29.1225 35.4824 29.5435C35.9806 29.8827 36.388 30.3389 36.6699 30.8716C36.9517 31.4042 37.0993 31.9975 37.0996 32.6001V34.1997C37.098 35.3334 36.4367 36.362 35.4062 36.8345C35.0288 37.0113 34.617 37.1017 34.2002 37.0991V37.1001H30.0996V36.1001H33.7002V31.6997H34.7002V36.0298C34.798 36.003 34.8945 35.9717 34.9863 35.9282L34.9873 35.9272C35.3185 35.776 35.5997 35.5331 35.7969 35.2271C35.9941 34.9208 36.0989 34.5639 36.0996 34.1997V32.6001C36.0991 32.1603 35.9919 31.7271 35.7861 31.3384C35.6059 30.9981 35.3552 30.7003 35.0518 30.4653L34.918 30.3687C34.4714 30.062 33.9421 29.8984 33.4004 29.8999H30.2002C30.1748 29.8999 30.15 29.9022 30.125 29.9038C30.2367 30.2585 30.2981 30.6271 30.2998 30.9995V35.0005C30.2981 36.1595 29.3592 37.0986 28.2002 37.1001H26.9004V30.4995H27.9004V36.1001H28.2002C28.8075 36.1 29.2998 35.6069 29.2998 34.9995V30.9995C29.2997 30.613 29.2167 30.2317 29.0566 29.8813L28.9834 29.7329C28.7765 29.3469 28.4795 29.0165 28.1182 28.769L28.1152 28.7661C28.0818 28.7413 28.0463 28.7196 28.0098 28.6997L28.0059 28.6968C27.5827 28.4376 27.0958 28.3007 26.5996 28.3003H23.4004C21.9095 28.3003 20.7004 29.5084 20.7002 30.9995V34.9995C20.7002 35.6069 21.1925 36.1 21.7998 36.1001H22.0996V30.4995H23.0996V37.1001H21.7998C20.6409 37.0986 19.7019 36.1595 19.7002 35.0005V30.9995L19.7148 30.688C19.7386 30.4216 19.7935 30.1592 19.874 29.9038C19.8494 29.9023 19.825 29.8999 19.7998 29.8999H16.5996C16.0583 29.8983 15.5293 30.0614 15.083 30.3677C14.7191 30.6152 14.421 30.9485 14.2148 31.3374C14.0087 31.7264 13.9009 32.1599 13.9004 32.6001V34.1997C13.9011 34.5626 14.0053 34.9177 14.2012 35.2231C14.3971 35.5286 14.6763 35.7723 15.0059 35.9243H15.0068C15.1008 35.9689 15.1997 36.0023 15.2998 36.0298V31.6997H16.2998V36.1001H19.9004V37.1001H15.7998C15.3805 37.1024 14.9663 37.0101 14.5869 36.8315C13.5597 36.3576 12.9018 35.3307 12.9004 34.1997V32.6001C12.9007 31.9972 13.048 31.4034 13.3301 30.8706C13.6122 30.3378 14.0201 29.8816 14.5186 29.5425C15.1309 29.122 15.8568 28.898 16.5996 28.8999H19.8008C19.9791 28.9015 20.1569 28.9176 20.333 28.9448C20.6614 28.447 21.1062 28.0362 21.6299 27.7495C22.1725 27.4524 22.7817 27.2981 23.4004 27.3003H26.5996Z" fill="#DFB001" stroke="#DFB001" stroke-width="0.2"/>
<path d="M23.3999 36.2H26.5999V37H23.3999V36.2Z" fill="#DFB001"/>
</svg>
