<?xml version="1.0" encoding="UTF-8"?>
<svg id="Layer_1" xmlns="http://www.w3.org/2000/svg" version="1.1" viewBox="0 0 500 500">
  <!-- Generator: Adobe Illustrator 30.3.0, SVG Export Plug-In . SVG Version: 2.1.3 Build 182)  -->
  <defs>
    <style>
      .st0 {
        fill: #f5b817;
      }
    </style>
  </defs>
  <path class="st0" d="M363.47,307.35l-.81,4.44,32.34,68.97.15,10.12c.02,1.23-2.42,2.86-3.98,2.86H89.37c-2.13,0-3.94-1.94-3.94-3.57v-8.91s32.52-69.45,32.52-69.45l-.8-4v-139.31c.01-6.16,5.08-11.17,11.23-11.17l199.55-.02c2.48,0,4.04,1.94,4.08,3.86.04,1.72-1.52,4-3.94,4h-199.36c-2.12,0-3.78,1.35-3.78,3.46v138.31c0,2.07,1.66,3.51,3.8,3.51h223.83c1.76-.43,3.16-1.71,3.16-3.4v-114.16c0-2.28,1.85-3.94,3.49-4.06,2.16-.15,4.28,1.38,4.28,4.07v114.43ZM382.81,373.15l-25.68-54.89-233.7.02-25.59,54.88h284.97ZM386.99,385.94c.76-2.11.42-3.72-.85-5.01H94.42c-1.16,1.35-1.42,3.08-.77,5.01h293.34Z"/>
  <path class="st0" d="M344.4,196.42c0-2.91,1.65-4.45,3.39-4.6,2.34-.21,4.4,1.37,4.4,4.11v107.36c-.01,2.15-2.13,3.71-4.22,3.71h-215.3c-2.72,0-4.23-1.91-4.23-4.48v-129.43c0-2.62,1.52-4.42,4.22-4.42h193c2.05.01,3.56,2.63,3.47,3.95-.14,2.06-1.69,3.71-4.26,3.87h-188.66s.01,122.73.01,122.73h208.19s-.01-102.78-.01-102.78Z"/>
  <path class="st0" d="M406.42,180.15c2.11-18.44-3.92-36.02-16.44-48.7-12.7-12.86-30.36-19.15-48.72-17.01-2.18.26-4.18-1.74-4.3-3.66-.11-1.71,1.44-3.86,3.56-4.1,20.55-2.31,40.56,4.79,54.68,19.01s21.48,34.66,18.83,55.23c-.2,1.52-2.53,2.95-3.73,3.01-1.36.07-4.11-1.75-3.87-3.78Z"/>
  <path class="st0" d="M390.3,177.88c1.46-13.48-2.94-25.94-11.83-34.94-9.11-9.21-21.68-13.86-34.92-12.39-2.12.24-4.19-1.15-4.59-2.93s.95-4.48,3.21-4.74c15.52-1.84,30.58,3.4,41.43,14.19s16.24,25.85,14.4,41.5c-.21,1.8-2.18,3.33-3.7,3.41-1.74.09-4.26-1.65-4-4.1Z"/>
  <path class="st0" d="M346.62,155.11c10.12-1.03,18.05,6.51,19.09,15.36,1.17,10-6.05,18.52-15.64,19.52s-17.92-5.8-19.16-15.28c-1.22-9.32,5.41-18.54,15.72-19.59ZM344.42,163.61c-5.44,2.28-6.95,8.39-5.13,12.69,2.21,5.23,8,7.14,12.62,5.29,5.09-2.04,7.28-7.78,5.56-12.36-1.94-5.17-7.6-7.91-13.05-5.62Z"/>
  <path class="st0" d="M376.88,179.85c-5.9-1.82,2-13.79-10.58-26.06-5.56-5.42-13.2-7.99-21.43-7.06-2.02.23-4.15-2.09-4.07-3.84.11-2.3,1.92-3.88,4.33-4.05,10.62-.76,20.65,3,27.75,10.54,6.91,7.33,10.46,17.57,8.74,28.12-.31,1.87-3.17,2.84-4.75,2.36Z"/>
  <path class="st0" d="M281.28,368.73h-81.62c-2.6,0-4.78-2.58-3.84-4.95l8.47-21.39c.65-.84,2.55-2.14,3.71-2.14h64.56c1.43,0,3.48,1.44,3.95,2.63l8.32,20.89c.5,1.98-.69,4.96-3.55,4.96ZM275.34,360.95l-5.3-12.93-59.63.05-5.08,12.89h70.01Z"/>
</svg>