<?xml version="1.0" encoding="UTF-8"?>
<svg id="Layer_1" xmlns="http://www.w3.org/2000/svg" version="1.1" viewBox="0 0 500 500">
  <!-- Generator: Adobe Illustrator 30.3.0, SVG Export Plug-In . SVG Version: 2.1.3 Build 182)  -->
  <defs>
    <style>
      .st0 {
        fill: #234192;
      }
    </style>
  </defs>
  <path class="st0" d="M428.85,264.78l.04,20.21-.36,4.24c-3.63,42.72-21.84,82.57-52.34,112.64-3.18,3.14-8.9,2.65-11.88-.34l-27.94-27.98c-3.4-3.4-2.48-9.29.42-12.13,3.28-3.22,8.94-3.36,12.36.04l21.14,21.06c24.79-27.61,39-62.26,40.9-98.82l-30.3-.09c-4.78-.01-8.35-4.64-8.3-8.78s3.57-8.7,8.36-8.71l30.25-.07c-2.03-36.71-16.27-71.15-40.97-98.75l-21.73,21.55c-3.33,3.3-9.28,2.24-12.06-.9s-3.3-8.49.03-11.83l21.27-21.36c-27.33-24.34-61.53-38.89-98.72-40.95l-.13,30.18c-.02,4.91-4.66,8.6-9.09,8.42-4.11-.17-8.4-3.73-8.42-8.42l-.12-30.19c-37.07,2.13-71.06,16.34-98.71,40.95l20.93,21.01c3.46,3.47,3.28,8.9.35,12.19-2.99,3.35-8.98,4.04-12.43.6l-21.35-21.26c-24.69,27.6-38.95,62.04-40.97,98.73l30.25.09c4.8.01,8.32,4.56,8.36,8.71s-3.51,8.74-8.3,8.76l-30.32.18c2.05,37.2,16.33,71.25,40.9,98.77l21.15-21.08c3.44-3.43,9.02-3.23,12.36-.02,2.92,2.8,3.8,8.72.42,12.11l-27.22,27.34c-2.96,2.98-8.66,4.74-12.22,1.28-32.06-31.21-50.76-73.38-53.08-118.01-2.58-49.77,15.68-97.5,49.35-132.77,70.56-73.95,188.27-73.94,258.83,0,29.19,30.59,46.91,70.77,49.32,113.4Z"/>
  <path class="st0" d="M240.43,306.13c-13.49-4.06-19.29-11.53-22.42-24.83-1.93-10.49.98-20.86,7.97-28.51,6.86-7.5,16.93-11.48,27.71-10.47l25.81-64.28c1.75-4.35,7.72-5.54,11.16-4.01,3.82,1.7,6.69,6.5,4.92,10.92l-25.31,63.35c4.49,3.26,7.17,7.33,9.34,12.09,5.44,11.91,3.88,25.55-4.32,35.42-8.28,9.96-21.65,14.31-34.87,10.33ZM264.2,269.21c-1.55-4.56-3.89-7.03-8.13-8.45-6.43-2.15-13.28-.67-17.58,4.49-3.99,4.79-4.41,11.54-1.57,17.52,3.74,7.86,16.22,9.81,23.47,3.15,4.34-3.99,5.92-10.47,3.8-16.72Z"/>
</svg>