<svg width="50" height="50" viewBox="0 0 50 50" fill="none" xmlns="http://www.w3.org/2000/svg">
<g clip-path="url(#clip0_26_277)">
<mask id="path-1-outside-1_26_277" maskUnits="userSpaceOnUse" x="0" y="0.692871" width="50" height="49" fill="black">
<rect fill="white" y="0.692871" width="50" height="49"/>
<path d="M48.7086 29.7169L42.2299 18.4956C41.6291 17.4549 40.2938 17.0972 39.253 17.6979L39.0567 17.8112V2.2146C39.0567 2.07623 39.0017 1.94352 38.9039 1.84568C38.8061 1.74784 38.6734 1.69287 38.535 1.69287H11.465C11.3266 1.69287 11.1939 1.74784 11.0961 1.84568C10.9982 1.94352 10.9433 2.07623 10.9433 2.2146V17.8113L10.747 17.698C9.70606 17.0974 8.37076 17.455 7.77005 18.4957L1.29138 29.717C1.0013 30.2195 0.924607 30.8065 1.0757 31.3702C1.22658 31.9337 1.58657 32.4039 2.0891 32.694L5.78061 34.8253C6.11059 35.0164 6.4852 35.117 6.86653 35.1168C7.62021 35.1168 8.35438 34.7259 8.75757 34.0277L8.87318 33.8273L12.0664 37.8151L11.8602 38.1084C10.9441 39.4107 11.4688 40.7986 12.4607 41.4965C12.9146 41.8159 13.4721 41.9943 14.0296 41.9692C13.7613 42.9925 14.2522 43.9656 15.031 44.5134C15.6721 44.9643 16.5178 45.134 17.2834 44.8468C17.3858 45.5167 17.7895 46.1068 18.3335 46.4895C19.1263 47.047 20.2331 47.1747 21.1135 46.5387C21.1429 46.6317 21.1786 46.7234 21.2205 46.8139C21.6011 47.6346 22.4292 48.2171 23.3304 48.2979C23.4005 48.3041 23.4701 48.3073 23.5392 48.3073C24.2997 48.3073 24.9958 47.9305 25.4729 47.2523L26.067 46.4077L28.5201 47.8358C28.9505 48.0865 29.3771 48.1959 29.7789 48.1959C30.6615 48.1959 31.4245 47.6677 31.844 46.9478C32.1222 46.4703 32.2524 45.903 32.1815 45.351C33.2307 45.5393 34.1652 44.9657 34.647 44.1388C34.9116 43.6845 35.0424 43.149 34.9934 42.6228C35.5284 42.77 35.9862 42.699 36.31 42.5916C36.8711 42.4052 37.3546 42.0026 37.6715 41.4585C38.1551 40.6282 38.1913 39.5268 37.5016 38.7065C38.0147 38.4951 38.4423 38.1024 38.7194 37.6261C39.2063 36.789 39.2377 35.6761 38.5289 34.8537L40.9928 33.5955L41.2425 34.028C41.5326 34.5304 42.0028 34.8905 42.5663 35.0414C42.7552 35.092 42.9467 35.1171 43.1368 35.1171C43.5138 35.1171 43.8854 35.0186 44.2195 34.8257L47.911 32.6945C48.4134 32.4044 48.7735 31.9342 48.9244 31.3706C49.0754 30.8064 48.9988 30.2194 48.7086 29.7169ZM11.9867 2.73632H38.0134V18.4138L35.5617 19.8294C35.0593 20.1194 34.6992 20.5896 34.5483 21.1532C34.433 21.5794 34.4507 22.0308 34.5991 22.4466C31.3758 23.359 28.5691 22.9381 26.7006 22.5269C23.8115 21.8909 22.4231 22.5275 20.4775 24.2904L15.3906 22.4733C15.5481 22.0504 15.5695 21.589 15.4518 21.1534C15.3009 20.5899 14.9409 20.1198 14.4384 19.8296L11.9867 18.414V2.73632ZM6.30223 33.9215L2.61072 31.7902C2.34954 31.6394 2.16224 31.3943 2.08346 31.1001C2.00458 30.8057 2.04412 30.4998 2.1949 30.2386L8.67357 19.0174C8.88372 18.6534 9.26625 18.4497 9.65911 18.4497C9.85173 18.4497 10.0467 18.4987 10.2252 18.6016L13.9166 20.733C14.459 21.0461 14.6454 21.7421 14.3323 22.2845L7.85373 33.5057C7.54059 34.048 6.84461 34.2348 6.30223 33.9215ZM14.9985 40.317C14.4491 41.0972 13.6296 41.0429 13.0611 40.6427C12.4923 40.2426 12.1643 39.4893 12.7137 38.7085L14.6307 35.983C15.1799 35.2023 15.9996 35.2561 16.5682 35.6558C17.1351 36.0542 17.4633 36.8031 16.9232 37.5808L16.0581 38.8106L14.9989 40.3164L14.9985 40.317ZM17.5694 43.3328C17.0199 44.1141 16.2001 44.0596 15.6314 43.6596C15.0625 43.2595 14.7344 42.5061 15.2838 41.7252L15.8524 40.9168L16.9116 39.411L17.7711 38.1889C17.7735 38.1857 17.7757 38.1824 17.778 38.179L18.534 37.1043C19.0832 36.3234 19.9031 36.3773 20.4719 36.7776C21.0407 37.1776 21.3689 37.931 20.8195 38.7119L20.4121 39.2912L17.7322 43.1012L17.5694 43.3328ZM20.8716 45.3089C20.3223 46.0897 19.5026 46.0356 18.9337 45.6357C18.3649 45.2357 18.0367 44.4825 18.5858 43.7017L21.2657 39.8917C21.8152 39.1116 22.6345 39.166 23.2034 39.5662C23.772 39.9664 24.0999 40.7196 23.5506 41.5003L22.4428 43.0754L22.4418 43.0769L21.4804 44.4436L20.8716 45.3089ZM24.6193 46.6515C24.229 47.2066 23.7529 47.2879 23.4234 47.2582C22.8952 47.2109 22.3902 46.8557 22.167 46.3745C22.0276 46.0738 21.9433 45.5989 22.3339 45.0439L22.3342 45.0434L23.2952 43.6771L23.2964 43.6753C23.8457 42.8964 24.6648 42.9508 25.233 43.3505C25.8019 43.7506 26.1302 44.504 25.5808 45.2848L24.6193 46.6515ZM37.8174 37.101C37.468 37.7018 36.7462 38.0937 35.9213 37.6144L32.5468 35.6497C32.4272 35.5801 32.2849 35.5608 32.1511 35.5962C32.0173 35.6315 31.9031 35.7186 31.8334 35.8382C31.7638 35.9578 31.7446 36.1001 31.7799 36.2339C31.8152 36.3677 31.9023 36.482 32.0219 36.5516L35.3963 38.5163L35.3967 38.5165L35.3971 38.5167L36.2786 39.03C36.6591 39.2516 36.8889 39.55 36.9617 39.9173C37.0261 40.243 36.9562 40.6132 36.77 40.933C36.4201 41.5339 35.6981 41.9256 34.8725 41.4448L33.7797 40.8085L30.3722 38.8244C30.313 38.7899 30.2475 38.7675 30.1796 38.7583C30.1117 38.7491 30.0427 38.7534 29.9765 38.7709C29.9102 38.7884 29.8481 38.8188 29.7936 38.8603C29.739 38.9018 29.6933 38.9536 29.6588 39.0129C29.6243 39.0721 29.6018 39.1375 29.5927 39.2054C29.5835 39.2733 29.5878 39.3423 29.6053 39.4086C29.6228 39.4748 29.6531 39.537 29.6947 39.5915C29.7362 39.646 29.788 39.6918 29.8472 39.7263L33.2544 41.7102L33.2545 41.7103L33.2547 41.7104C34.0795 42.191 34.0954 43.0125 33.7454 43.6132C33.3954 44.2141 32.673 44.6051 31.848 44.1249L30.9775 43.618L30.9768 43.6175L28.1974 41.9992C28.0778 41.9296 27.9355 41.9103 27.8017 41.9457C27.6679 41.981 27.5536 42.0681 27.484 42.1877C27.4144 42.3072 27.3952 42.4496 27.4305 42.5834C27.4658 42.7172 27.5529 42.8314 27.6725 42.9011L30.4518 44.5193L30.4522 44.5195C31.2762 45.0004 31.2922 45.8215 30.9423 46.4222C30.5925 47.0229 29.8699 47.414 29.0449 46.9337L26.6446 45.5361C27.2526 44.3413 26.7369 43.1329 25.8332 42.4971C25.4313 42.2145 24.9489 42.0423 24.4561 42.0239C25.2993 40.7442 24.7759 39.3971 23.8037 38.7129C23.3188 38.3716 22.7156 38.191 22.1201 38.248C22.2697 37.307 21.7949 36.4326 21.0722 35.9241C20.224 35.3275 19.0158 35.2227 18.1106 36.02C17.9338 35.5276 17.5939 35.1013 17.1681 34.8021C16.1761 34.1048 14.6929 34.0806 13.7771 35.3825L12.6914 36.9261L9.43299 32.8571L14.8916 23.4026L19.6246 25.0934C19.3375 25.3723 19.0516 25.6524 18.7669 25.9337C18.3895 26.3054 17.9994 26.6898 17.5642 27.1113C17.4689 27.2036 17.4123 27.3287 17.406 27.4613L17.185 32.1141C17.1378 33.1068 17.5582 33.5859 17.9193 33.8131C18.5871 34.2331 19.5793 34.1279 20.7128 33.5158C21.673 32.9974 22.2322 31.8026 22.773 30.6472C22.8997 30.3763 23.0207 30.1179 23.1423 29.8789C23.2438 29.8313 23.3451 29.7834 23.4463 29.7352C24.7547 29.1142 25.8846 28.5779 27.0023 29.223L37.3255 35.1985C38.1505 35.6789 38.167 36.5001 37.8174 37.101ZM37.6038 34.1539L27.5247 28.3197C25.9322 27.4002 24.3739 28.1398 22.9991 28.7926C22.8473 28.8646 22.6953 28.9368 22.543 29.0071C22.4393 29.0549 22.3542 29.1354 22.3007 29.2362C22.1396 29.5396 21.9883 29.8629 21.8282 30.205C21.3811 31.1603 20.8743 32.243 20.2173 32.5977C19.3152 33.0845 18.7152 33.0807 18.4751 32.9301C18.247 32.7866 18.2146 32.4341 18.2274 32.1637L18.4386 27.7169C18.818 27.3484 19.1637 27.0077 19.4992 26.6771C22.4737 23.7467 23.3715 22.862 26.4762 23.5456C28.4989 23.991 31.5617 24.4458 35.0995 23.3874L40.4705 32.6901L37.6038 34.1539ZM47.9165 31.1001C47.8377 31.3943 47.6504 31.6394 47.3893 31.7902L43.6978 33.9215C43.4367 34.0722 43.1306 34.1121 42.8364 34.0329C42.5421 33.9541 42.297 33.7668 42.1463 33.5056L35.6676 22.2844C35.3544 21.742 35.5409 21.046 36.0833 20.7329L39.7747 18.6015C40.317 18.2883 41.0132 18.4748 41.3263 19.0172L47.805 30.2385C47.9559 30.4998 47.9953 30.8057 47.9165 31.1001ZM25 20.5705C29.2932 20.5705 32.7859 17.0777 32.7859 12.7845C32.7859 8.49136 29.2931 4.99862 25 4.99862C20.7067 4.99862 17.214 8.49146 17.214 12.7845C17.214 17.0776 20.7068 20.5705 25 20.5705ZM25 6.04197C28.7178 6.04197 31.7424 9.06661 31.7424 12.7844C31.7424 16.5022 28.7178 19.527 25 19.527C21.2822 19.527 18.2574 16.5023 18.2574 12.7844C18.2574 9.06671 21.2822 6.04197 25 6.04197ZM21.4385 13.1535C21.3407 13.0556 21.2857 12.923 21.2857 12.7846C21.2857 12.6463 21.3407 12.5136 21.4385 12.4158C21.5363 12.318 21.669 12.263 21.8074 12.263C21.9457 12.263 22.0784 12.318 22.1762 12.4158L23.9358 14.1752L27.8239 10.2871C27.9217 10.1893 28.0544 10.1344 28.1927 10.1344C28.3311 10.1344 28.4638 10.1893 28.5616 10.2871C28.6594 10.385 28.7144 10.5176 28.7144 10.656C28.7144 10.7943 28.6594 10.927 28.5616 11.0248L24.3046 15.2819C24.2068 15.3797 24.0741 15.4347 23.9358 15.4347C23.7974 15.4347 23.6648 15.3797 23.5669 15.2819L21.4385 13.1535Z"/>
</mask>
<path d="M48.7086 29.7169L42.2299 18.4956C41.6291 17.4549 40.2938 17.0972 39.253 17.6979L39.0567 17.8112V2.2146C39.0567 2.07623 39.0017 1.94352 38.9039 1.84568C38.8061 1.74784 38.6734 1.69287 38.535 1.69287H11.465C11.3266 1.69287 11.1939 1.74784 11.0961 1.84568C10.9982 1.94352 10.9433 2.07623 10.9433 2.2146V17.8113L10.747 17.698C9.70606 17.0974 8.37076 17.455 7.77005 18.4957L1.29138 29.717C1.0013 30.2195 0.924607 30.8065 1.0757 31.3702C1.22658 31.9337 1.58657 32.4039 2.0891 32.694L5.78061 34.8253C6.11059 35.0164 6.4852 35.117 6.86653 35.1168C7.62021 35.1168 8.35438 34.7259 8.75757 34.0277L8.87318 33.8273L12.0664 37.8151L11.8602 38.1084C10.9441 39.4107 11.4688 40.7986 12.4607 41.4965C12.9146 41.8159 13.4721 41.9943 14.0296 41.9692C13.7613 42.9925 14.2522 43.9656 15.031 44.5134C15.6721 44.9643 16.5178 45.134 17.2834 44.8468C17.3858 45.5167 17.7895 46.1068 18.3335 46.4895C19.1263 47.047 20.2331 47.1747 21.1135 46.5387C21.1429 46.6317 21.1786 46.7234 21.2205 46.8139C21.6011 47.6346 22.4292 48.2171 23.3304 48.2979C23.4005 48.3041 23.4701 48.3073 23.5392 48.3073C24.2997 48.3073 24.9958 47.9305 25.4729 47.2523L26.067 46.4077L28.5201 47.8358C28.9505 48.0865 29.3771 48.1959 29.7789 48.1959C30.6615 48.1959 31.4245 47.6677 31.844 46.9478C32.1222 46.4703 32.2524 45.903 32.1815 45.351C33.2307 45.5393 34.1652 44.9657 34.647 44.1388C34.9116 43.6845 35.0424 43.149 34.9934 42.6228C35.5284 42.77 35.9862 42.699 36.31 42.5916C36.8711 42.4052 37.3546 42.0026 37.6715 41.4585C38.1551 40.6282 38.1913 39.5268 37.5016 38.7065C38.0147 38.4951 38.4423 38.1024 38.7194 37.6261C39.2063 36.789 39.2377 35.6761 38.5289 34.8537L40.9928 33.5955L41.2425 34.028C41.5326 34.5304 42.0028 34.8905 42.5663 35.0414C42.7552 35.092 42.9467 35.1171 43.1368 35.1171C43.5138 35.1171 43.8854 35.0186 44.2195 34.8257L47.911 32.6945C48.4134 32.4044 48.7735 31.9342 48.9244 31.3706C49.0754 30.8064 48.9988 30.2194 48.7086 29.7169ZM11.9867 2.73632H38.0134V18.4138L35.5617 19.8294C35.0593 20.1194 34.6992 20.5896 34.5483 21.1532C34.433 21.5794 34.4507 22.0308 34.5991 22.4466C31.3758 23.359 28.5691 22.9381 26.7006 22.5269C23.8115 21.8909 22.4231 22.5275 20.4775 24.2904L15.3906 22.4733C15.5481 22.0504 15.5695 21.589 15.4518 21.1534C15.3009 20.5899 14.9409 20.1198 14.4384 19.8296L11.9867 18.414V2.73632ZM6.30223 33.9215L2.61072 31.7902C2.34954 31.6394 2.16224 31.3943 2.08346 31.1001C2.00458 30.8057 2.04412 30.4998 2.1949 30.2386L8.67357 19.0174C8.88372 18.6534 9.26625 18.4497 9.65911 18.4497C9.85173 18.4497 10.0467 18.4987 10.2252 18.6016L13.9166 20.733C14.459 21.0461 14.6454 21.7421 14.3323 22.2845L7.85373 33.5057C7.54059 34.048 6.84461 34.2348 6.30223 33.9215ZM14.9985 40.317C14.4491 41.0972 13.6296 41.0429 13.0611 40.6427C12.4923 40.2426 12.1643 39.4893 12.7137 38.7085L14.6307 35.983C15.1799 35.2023 15.9996 35.2561 16.5682 35.6558C17.1351 36.0542 17.4633 36.8031 16.9232 37.5808L16.0581 38.8106L14.9989 40.3164L14.9985 40.317ZM17.5694 43.3328C17.0199 44.1141 16.2001 44.0596 15.6314 43.6596C15.0625 43.2595 14.7344 42.5061 15.2838 41.7252L15.8524 40.9168L16.9116 39.411L17.7711 38.1889C17.7735 38.1857 17.7757 38.1824 17.778 38.179L18.534 37.1043C19.0832 36.3234 19.9031 36.3773 20.4719 36.7776C21.0407 37.1776 21.3689 37.931 20.8195 38.7119L20.4121 39.2912L17.7322 43.1012L17.5694 43.3328ZM20.8716 45.3089C20.3223 46.0897 19.5026 46.0356 18.9337 45.6357C18.3649 45.2357 18.0367 44.4825 18.5858 43.7017L21.2657 39.8917C21.8152 39.1116 22.6345 39.166 23.2034 39.5662C23.772 39.9664 24.0999 40.7196 23.5506 41.5003L22.4428 43.0754L22.4418 43.0769L21.4804 44.4436L20.8716 45.3089ZM24.6193 46.6515C24.229 47.2066 23.7529 47.2879 23.4234 47.2582C22.8952 47.2109 22.3902 46.8557 22.167 46.3745C22.0276 46.0738 21.9433 45.5989 22.3339 45.0439L22.3342 45.0434L23.2952 43.6771L23.2964 43.6753C23.8457 42.8964 24.6648 42.9508 25.233 43.3505C25.8019 43.7506 26.1302 44.504 25.5808 45.2848L24.6193 46.6515ZM37.8174 37.101C37.468 37.7018 36.7462 38.0937 35.9213 37.6144L32.5468 35.6497C32.4272 35.5801 32.2849 35.5608 32.1511 35.5962C32.0173 35.6315 31.9031 35.7186 31.8334 35.8382C31.7638 35.9578 31.7446 36.1001 31.7799 36.2339C31.8152 36.3677 31.9023 36.482 32.0219 36.5516L35.3963 38.5163L35.3967 38.5165L35.3971 38.5167L36.2786 39.03C36.6591 39.2516 36.8889 39.55 36.9617 39.9173C37.0261 40.243 36.9562 40.6132 36.77 40.933C36.4201 41.5339 35.6981 41.9256 34.8725 41.4448L33.7797 40.8085L30.3722 38.8244C30.313 38.7899 30.2475 38.7675 30.1796 38.7583C30.1117 38.7491 30.0427 38.7534 29.9765 38.7709C29.9102 38.7884 29.8481 38.8188 29.7936 38.8603C29.739 38.9018 29.6933 38.9536 29.6588 39.0129C29.6243 39.0721 29.6018 39.1375 29.5927 39.2054C29.5835 39.2733 29.5878 39.3423 29.6053 39.4086C29.6228 39.4748 29.6531 39.537 29.6947 39.5915C29.7362 39.646 29.788 39.6918 29.8472 39.7263L33.2544 41.7102L33.2545 41.7103L33.2547 41.7104C34.0795 42.191 34.0954 43.0125 33.7454 43.6132C33.3954 44.2141 32.673 44.6051 31.848 44.1249L30.9775 43.618L30.9768 43.6175L28.1974 41.9992C28.0778 41.9296 27.9355 41.9103 27.8017 41.9457C27.6679 41.981 27.5536 42.0681 27.484 42.1877C27.4144 42.3072 27.3952 42.4496 27.4305 42.5834C27.4658 42.7172 27.5529 42.8314 27.6725 42.9011L30.4518 44.5193L30.4522 44.5195C31.2762 45.0004 31.2922 45.8215 30.9423 46.4222C30.5925 47.0229 29.8699 47.414 29.0449 46.9337L26.6446 45.5361C27.2526 44.3413 26.7369 43.1329 25.8332 42.4971C25.4313 42.2145 24.9489 42.0423 24.4561 42.0239C25.2993 40.7442 24.7759 39.3971 23.8037 38.7129C23.3188 38.3716 22.7156 38.191 22.1201 38.248C22.2697 37.307 21.7949 36.4326 21.0722 35.9241C20.224 35.3275 19.0158 35.2227 18.1106 36.02C17.9338 35.5276 17.5939 35.1013 17.1681 34.8021C16.1761 34.1048 14.6929 34.0806 13.7771 35.3825L12.6914 36.9261L9.43299 32.8571L14.8916 23.4026L19.6246 25.0934C19.3375 25.3723 19.0516 25.6524 18.7669 25.9337C18.3895 26.3054 17.9994 26.6898 17.5642 27.1113C17.4689 27.2036 17.4123 27.3287 17.406 27.4613L17.185 32.1141C17.1378 33.1068 17.5582 33.5859 17.9193 33.8131C18.5871 34.2331 19.5793 34.1279 20.7128 33.5158C21.673 32.9974 22.2322 31.8026 22.773 30.6472C22.8997 30.3763 23.0207 30.1179 23.1423 29.8789C23.2438 29.8313 23.3451 29.7834 23.4463 29.7352C24.7547 29.1142 25.8846 28.5779 27.0023 29.223L37.3255 35.1985C38.1505 35.6789 38.167 36.5001 37.8174 37.101ZM37.6038 34.1539L27.5247 28.3197C25.9322 27.4002 24.3739 28.1398 22.9991 28.7926C22.8473 28.8646 22.6953 28.9368 22.543 29.0071C22.4393 29.0549 22.3542 29.1354 22.3007 29.2362C22.1396 29.5396 21.9883 29.8629 21.8282 30.205C21.3811 31.1603 20.8743 32.243 20.2173 32.5977C19.3152 33.0845 18.7152 33.0807 18.4751 32.9301C18.247 32.7866 18.2146 32.4341 18.2274 32.1637L18.4386 27.7169C18.818 27.3484 19.1637 27.0077 19.4992 26.6771C22.4737 23.7467 23.3715 22.862 26.4762 23.5456C28.4989 23.991 31.5617 24.4458 35.0995 23.3874L40.4705 32.6901L37.6038 34.1539ZM47.9165 31.1001C47.8377 31.3943 47.6504 31.6394 47.3893 31.7902L43.6978 33.9215C43.4367 34.0722 43.1306 34.1121 42.8364 34.0329C42.5421 33.9541 42.297 33.7668 42.1463 33.5056L35.6676 22.2844C35.3544 21.742 35.5409 21.046 36.0833 20.7329L39.7747 18.6015C40.317 18.2883 41.0132 18.4748 41.3263 19.0172L47.805 30.2385C47.9559 30.4998 47.9953 30.8057 47.9165 31.1001ZM25 20.5705C29.2932 20.5705 32.7859 17.0777 32.7859 12.7845C32.7859 8.49136 29.2931 4.99862 25 4.99862C20.7067 4.99862 17.214 8.49146 17.214 12.7845C17.214 17.0776 20.7068 20.5705 25 20.5705ZM25 6.04197C28.7178 6.04197 31.7424 9.06661 31.7424 12.7844C31.7424 16.5022 28.7178 19.527 25 19.527C21.2822 19.527 18.2574 16.5023 18.2574 12.7844C18.2574 9.06671 21.2822 6.04197 25 6.04197ZM21.4385 13.1535C21.3407 13.0556 21.2857 12.923 21.2857 12.7846C21.2857 12.6463 21.3407 12.5136 21.4385 12.4158C21.5363 12.318 21.669 12.263 21.8074 12.263C21.9457 12.263 22.0784 12.318 22.1762 12.4158L23.9358 14.1752L27.8239 10.2871C27.9217 10.1893 28.0544 10.1344 28.1927 10.1344C28.3311 10.1344 28.4638 10.1893 28.5616 10.2871C28.6594 10.385 28.7144 10.5176 28.7144 10.656C28.7144 10.7943 28.6594 10.927 28.5616 11.0248L24.3046 15.2819C24.2068 15.3797 24.0741 15.4347 23.9358 15.4347C23.7974 15.4347 23.6648 15.3797 23.5669 15.2819L21.4385 13.1535Z" fill="#DFB001"/>
<path d="M48.7086 29.7169L42.2299 18.4956C41.6291 17.4549 40.2938 17.0972 39.253 17.6979L39.0567 17.8112V2.2146C39.0567 2.07623 39.0017 1.94352 38.9039 1.84568C38.8061 1.74784 38.6734 1.69287 38.535 1.69287H11.465C11.3266 1.69287 11.1939 1.74784 11.0961 1.84568C10.9982 1.94352 10.9433 2.07623 10.9433 2.2146V17.8113L10.747 17.698C9.70606 17.0974 8.37076 17.455 7.77005 18.4957L1.29138 29.717C1.0013 30.2195 0.924607 30.8065 1.0757 31.3702C1.22658 31.9337 1.58657 32.4039 2.0891 32.694L5.78061 34.8253C6.11059 35.0164 6.4852 35.117 6.86653 35.1168C7.62021 35.1168 8.35438 34.7259 8.75757 34.0277L8.87318 33.8273L12.0664 37.8151L11.8602 38.1084C10.9441 39.4107 11.4688 40.7986 12.4607 41.4965C12.9146 41.8159 13.4721 41.9943 14.0296 41.9692C13.7613 42.9925 14.2522 43.9656 15.031 44.5134C15.6721 44.9643 16.5178 45.134 17.2834 44.8468C17.3858 45.5167 17.7895 46.1068 18.3335 46.4895C19.1263 47.047 20.2331 47.1747 21.1135 46.5387C21.1429 46.6317 21.1786 46.7234 21.2205 46.8139C21.6011 47.6346 22.4292 48.2171 23.3304 48.2979C23.4005 48.3041 23.4701 48.3073 23.5392 48.3073C24.2997 48.3073 24.9958 47.9305 25.4729 47.2523L26.067 46.4077L28.5201 47.8358C28.9505 48.0865 29.3771 48.1959 29.7789 48.1959C30.6615 48.1959 31.4245 47.6677 31.844 46.9478C32.1222 46.4703 32.2524 45.903 32.1815 45.351C33.2307 45.5393 34.1652 44.9657 34.647 44.1388C34.9116 43.6845 35.0424 43.149 34.9934 42.6228C35.5284 42.77 35.9862 42.699 36.31 42.5916C36.8711 42.4052 37.3546 42.0026 37.6715 41.4585C38.1551 40.6282 38.1913 39.5268 37.5016 38.7065C38.0147 38.4951 38.4423 38.1024 38.7194 37.6261C39.2063 36.789 39.2377 35.6761 38.5289 34.8537L40.9928 33.5955L41.2425 34.028C41.5326 34.5304 42.0028 34.8905 42.5663 35.0414C42.7552 35.092 42.9467 35.1171 43.1368 35.1171C43.5138 35.1171 43.8854 35.0186 44.2195 34.8257L47.911 32.6945C48.4134 32.4044 48.7735 31.9342 48.9244 31.3706C49.0754 30.8064 48.9988 30.2194 48.7086 29.7169ZM11.9867 2.73632H38.0134V18.4138L35.5617 19.8294C35.0593 20.1194 34.6992 20.5896 34.5483 21.1532C34.433 21.5794 34.4507 22.0308 34.5991 22.4466C31.3758 23.359 28.5691 22.9381 26.7006 22.5269C23.8115 21.8909 22.4231 22.5275 20.4775 24.2904L15.3906 22.4733C15.5481 22.0504 15.5695 21.589 15.4518 21.1534C15.3009 20.5899 14.9409 20.1198 14.4384 19.8296L11.9867 18.414V2.73632ZM6.30223 33.9215L2.61072 31.7902C2.34954 31.6394 2.16224 31.3943 2.08346 31.1001C2.00458 30.8057 2.04412 30.4998 2.1949 30.2386L8.67357 19.0174C8.88372 18.6534 9.26625 18.4497 9.65911 18.4497C9.85173 18.4497 10.0467 18.4987 10.2252 18.6016L13.9166 20.733C14.459 21.0461 14.6454 21.7421 14.3323 22.2845L7.85373 33.5057C7.54059 34.048 6.84461 34.2348 6.30223 33.9215ZM14.9985 40.317C14.4491 41.0972 13.6296 41.0429 13.0611 40.6427C12.4923 40.2426 12.1643 39.4893 12.7137 38.7085L14.6307 35.983C15.1799 35.2023 15.9996 35.2561 16.5682 35.6558C17.1351 36.0542 17.4633 36.8031 16.9232 37.5808L16.0581 38.8106L14.9989 40.3164L14.9985 40.317ZM17.5694 43.3328C17.0199 44.1141 16.2001 44.0596 15.6314 43.6596C15.0625 43.2595 14.7344 42.5061 15.2838 41.7252L15.8524 40.9168L16.9116 39.411L17.7711 38.1889C17.7735 38.1857 17.7757 38.1824 17.778 38.179L18.534 37.1043C19.0832 36.3234 19.9031 36.3773 20.4719 36.7776C21.0407 37.1776 21.3689 37.931 20.8195 38.7119L20.4121 39.2912L17.7322 43.1012L17.5694 43.3328ZM20.8716 45.3089C20.3223 46.0897 19.5026 46.0356 18.9337 45.6357C18.3649 45.2357 18.0367 44.4825 18.5858 43.7017L21.2657 39.8917C21.8152 39.1116 22.6345 39.166 23.2034 39.5662C23.772 39.9664 24.0999 40.7196 23.5506 41.5003L22.4428 43.0754L22.4418 43.0769L21.4804 44.4436L20.8716 45.3089ZM24.6193 46.6515C24.229 47.2066 23.7529 47.2879 23.4234 47.2582C22.8952 47.2109 22.3902 46.8557 22.167 46.3745C22.0276 46.0738 21.9433 45.5989 22.3339 45.0439L22.3342 45.0434L23.2952 43.6771L23.2964 43.6753C23.8457 42.8964 24.6648 42.9508 25.233 43.3505C25.8019 43.7506 26.1302 44.504 25.5808 45.2848L24.6193 46.6515ZM37.8174 37.101C37.468 37.7018 36.7462 38.0937 35.9213 37.6144L32.5468 35.6497C32.4272 35.5801 32.2849 35.5608 32.1511 35.5962C32.0173 35.6315 31.9031 35.7186 31.8334 35.8382C31.7638 35.9578 31.7446 36.1001 31.7799 36.2339C31.8152 36.3677 31.9023 36.482 32.0219 36.5516L35.3963 38.5163L35.3967 38.5165L35.3971 38.5167L36.2786 39.03C36.6591 39.2516 36.8889 39.55 36.9617 39.9173C37.0261 40.243 36.9562 40.6132 36.77 40.933C36.4201 41.5339 35.6981 41.9256 34.8725 41.4448L33.7797 40.8085L30.3722 38.8244C30.313 38.7899 30.2475 38.7675 30.1796 38.7583C30.1117 38.7491 30.0427 38.7534 29.9765 38.7709C29.9102 38.7884 29.8481 38.8188 29.7936 38.8603C29.739 38.9018 29.6933 38.9536 29.6588 39.0129C29.6243 39.0721 29.6018 39.1375 29.5927 39.2054C29.5835 39.2733 29.5878 39.3423 29.6053 39.4086C29.6228 39.4748 29.6531 39.537 29.6947 39.5915C29.7362 39.646 29.788 39.6918 29.8472 39.7263L33.2544 41.7102L33.2545 41.7103L33.2547 41.7104C34.0795 42.191 34.0954 43.0125 33.7454 43.6132C33.3954 44.2141 32.673 44.6051 31.848 44.1249L30.9775 43.618L30.9768 43.6175L28.1974 41.9992C28.0778 41.9296 27.9355 41.9103 27.8017 41.9457C27.6679 41.981 27.5536 42.0681 27.484 42.1877C27.4144 42.3072 27.3952 42.4496 27.4305 42.5834C27.4658 42.7172 27.5529 42.8314 27.6725 42.9011L30.4518 44.5193L30.4522 44.5195C31.2762 45.0004 31.2922 45.8215 30.9423 46.4222C30.5925 47.0229 29.8699 47.414 29.0449 46.9337L26.6446 45.5361C27.2526 44.3413 26.7369 43.1329 25.8332 42.4971C25.4313 42.2145 24.9489 42.0423 24.4561 42.0239C25.2993 40.7442 24.7759 39.3971 23.8037 38.7129C23.3188 38.3716 22.7156 38.191 22.1201 38.248C22.2697 37.307 21.7949 36.4326 21.0722 35.9241C20.224 35.3275 19.0158 35.2227 18.1106 36.02C17.9338 35.5276 17.5939 35.1013 17.1681 34.8021C16.1761 34.1048 14.6929 34.0806 13.7771 35.3825L12.6914 36.9261L9.43299 32.8571L14.8916 23.4026L19.6246 25.0934C19.3375 25.3723 19.0516 25.6524 18.7669 25.9337C18.3895 26.3054 17.9994 26.6898 17.5642 27.1113C17.4689 27.2036 17.4123 27.3287 17.406 27.4613L17.185 32.1141C17.1378 33.1068 17.5582 33.5859 17.9193 33.8131C18.5871 34.2331 19.5793 34.1279 20.7128 33.5158C21.673 32.9974 22.2322 31.8026 22.773 30.6472C22.8997 30.3763 23.0207 30.1179 23.1423 29.8789C23.2438 29.8313 23.3451 29.7834 23.4463 29.7352C24.7547 29.1142 25.8846 28.5779 27.0023 29.223L37.3255 35.1985C38.1505 35.6789 38.167 36.5001 37.8174 37.101ZM37.6038 34.1539L27.5247 28.3197C25.9322 27.4002 24.3739 28.1398 22.9991 28.7926C22.8473 28.8646 22.6953 28.9368 22.543 29.0071C22.4393 29.0549 22.3542 29.1354 22.3007 29.2362C22.1396 29.5396 21.9883 29.8629 21.8282 30.205C21.3811 31.1603 20.8743 32.243 20.2173 32.5977C19.3152 33.0845 18.7152 33.0807 18.4751 32.9301C18.247 32.7866 18.2146 32.4341 18.2274 32.1637L18.4386 27.7169C18.818 27.3484 19.1637 27.0077 19.4992 26.6771C22.4737 23.7467 23.3715 22.862 26.4762 23.5456C28.4989 23.991 31.5617 24.4458 35.0995 23.3874L40.4705 32.6901L37.6038 34.1539ZM47.9165 31.1001C47.8377 31.3943 47.6504 31.6394 47.3893 31.7902L43.6978 33.9215C43.4367 34.0722 43.1306 34.1121 42.8364 34.0329C42.5421 33.9541 42.297 33.7668 42.1463 33.5056L35.6676 22.2844C35.3544 21.742 35.5409 21.046 36.0833 20.7329L39.7747 18.6015C40.317 18.2883 41.0132 18.4748 41.3263 19.0172L47.805 30.2385C47.9559 30.4998 47.9953 30.8057 47.9165 31.1001ZM25 20.5705C29.2932 20.5705 32.7859 17.0777 32.7859 12.7845C32.7859 8.49136 29.2931 4.99862 25 4.99862C20.7067 4.99862 17.214 8.49146 17.214 12.7845C17.214 17.0776 20.7068 20.5705 25 20.5705ZM25 6.04197C28.7178 6.04197 31.7424 9.06661 31.7424 12.7844C31.7424 16.5022 28.7178 19.527 25 19.527C21.2822 19.527 18.2574 16.5023 18.2574 12.7844C18.2574 9.06671 21.2822 6.04197 25 6.04197ZM21.4385 13.1535C21.3407 13.0556 21.2857 12.923 21.2857 12.7846C21.2857 12.6463 21.3407 12.5136 21.4385 12.4158C21.5363 12.318 21.669 12.263 21.8074 12.263C21.9457 12.263 22.0784 12.318 22.1762 12.4158L23.9358 14.1752L27.8239 10.2871C27.9217 10.1893 28.0544 10.1344 28.1927 10.1344C28.3311 10.1344 28.4638 10.1893 28.5616 10.2871C28.6594 10.385 28.7144 10.5176 28.7144 10.656C28.7144 10.7943 28.6594 10.927 28.5616 11.0248L24.3046 15.2819C24.2068 15.3797 24.0741 15.4347 23.9358 15.4347C23.7974 15.4347 23.6648 15.3797 23.5669 15.2819L21.4385 13.1535Z" stroke="#DFB001" stroke-width="1.4" mask="url(#path-1-outside-1_26_277)"/>
</g>
<defs>
<clipPath id="clip0_26_277">
<rect width="50" height="50" fill="white"/>
</clipPath>
</defs>
</svg>
